<svg version="1.1" id="katman_1" xmlns="http://www.w3.org/2000/svg" x="0" y="0" viewBox="0 0 2000 302.6" style="enable-background:new 0 0 2000 302.6" xml:space="preserve"><style>.st2{fill:#fff}</style><path d="M1331.6 3.4h104.8c3.4 0 6.9 0 8.6 1.7 1.7 0 3.4 1.7 6.9 1.7 5.2 1.7 8.6 3.4 12 6.9 3.4 3.4 6.9 6.9 8.6 12 1.7 3.4 1.7 8.6 3.4 15.5 0 6.9 1.7 17.2 1.7 32.6v77.3c0 5.2 0 8.6-1.7 12 0 3.4-1.7 6.9-1.7 8.6-1.7 1.7-1.7 5.2-3.4 6.9-3.4 6.9-6.9 10.3-12 13.7-5.2 3.4-12 5.2-22.3 5.2-1.7 0-15.5 1.7-39.5 1.7v97.9h-61.9V3.4h-3.5zm67 147.8c5.2 0 10.3-1.7 10.3-3.4 1.7-1.7 1.7-8.6 1.7-17.2V61.9c0-3.4-1.7-5.2-1.7-6.9l-3.4-3.4H1393.4v99.7c.1-.1 5.2-.1 5.2-.1zM1630.6 3.4h104.8c3.4 0 6.9 0 8.6 1.7 1.7 0 3.4 1.7 6.9 1.7 5.2 1.7 8.6 3.4 12 6.9 3.4 3.4 6.9 6.9 8.6 12 1.7 3.4 1.7 8.6 3.4 15.5 0 6.9 1.7 17.2 1.7 32.6v77.3c0 5.2 0 8.6-1.7 12 0 3.4-1.7 6.9-1.7 8.6-1.7 1.7-1.7 5.2-3.4 6.9-3.4 6.9-6.9 10.3-12 13.7-5.2 3.4-12 5.2-22.3 5.2-1.7 0-15.5 1.7-39.5 1.7v97.9h-62V3.4h-3.4zm68.7 147.8c5.2 0 10.3-1.7 10.3-3.4 1.7-1.7 1.7-8.6 1.7-17.2V61.9c0-3.4-1.7-5.2-1.7-6.9l-3.4-3.4H1694.1v99.7c.1-.1 5.2-.1 5.2-.1zM1786.9 3.4h96.3v48.1h-34.4v60.2h34.4v48.1h-34.4v91.1h34.4V299h-96.3zM58.4 3.4v242.3h43v51.6H0V3.4zM1958.8 3.4v242.3h41.2v51.6h-99.7V3.4zM207.9 297.3l-5.2-43h-36.1l-3.4 43H110L147.8 3.4h80.8l37.8 293.8h-58.5zm-36.1-92.8h25.8L183.8 77.3l-12 127.2zM479.4 168.4v77.3c0 36.1-17.2 55-55 55h-36.1c-36.1 0-55-18.9-55-55v-189c0-36.1 17.2-55 55-55h36.1c36.1 0 55 17.2 55 55v68.7H421V63.6c0-6.9-3.4-10.3-10.3-10.3h-6.9c-6.9 0-10.3 3.4-10.3 10.3v175.3c0 6.9 3.4 10.3 10.3 10.3h6.9c6.9 0 10.3-3.4 10.3-10.3v-72.2h58.4v1.7zM587.6 297.3l-5.2-43h-36.1l-3.4 43h-53.3L527.5 3.4h80.8L646 297.3h-58.4zm-36.1-92.8h25.8L563.6 77.3l-12.1 127.2zM797.3 192.4v53.3c0 36.1-17.2 55-55 55h-32.6c-36.1 0-55-18.9-55-55v-61.9h56.7v56.7c0 6.9 3.4 10.3 10.3 10.3h5.2c6.9 0 10.3-3.4 10.3-10.3v-36.1c0-8.6-3.4-13.7-10.3-18.9L677 147.8c-17.2-13.7-24.1-25.8-24.1-46.4V55c0-36.1 17.2-55 55-55h32.6c36.1 0 55 18.9 55 55v53.3h-56.7V60.1c0-6.9-3.4-10.3-10.3-10.3h-5.2c-6.9 0-10.3 3.4-10.3 10.3v27.5c0 8.6 3.4 13.7 10.3 18.9l49.8 37.8c19 13.8 24.2 25.8 24.2 48.1M903.8 297.3l-5.2-43h-36.1l-3.4 43h-53.3L843.6 3.4h80.8l37.8 293.8h-58.4zm-36.1-92.8h25.8L879.7 77.3l-12 127.2zM1567 297.3l-5.2-43h-36.1l-3.4 43H1469l37.8-293.8h80.8l37.8 293.8H1567zm-36.1-92.8h25.8L1543 77.3l-12.1 127.2z"/><path style="fill:#e9282b" d="M989.7 3.4h311v299h-311z"/><path style="fill:none;stroke:#ba3927;stroke-width:.4252;stroke-miterlimit:10" d="M989.7 3.4h311v299h-311z"/><path class="st2" d="M1063.6 58.4h58.4c5.2 0 8.6 0 12 1.7 3.4 0 5.2 1.7 6.9 1.7l5.2 5.2c1.7 1.7 3.4 3.4 3.4 5.2 1.7 1.7 1.7 5.2 1.7 6.9 0 3.4 1.7 6.9 1.7 10.3v123.8c0 3.4 0 8.6-1.7 10.3 0 3.4-1.7 5.2-1.7 6.9-1.7 1.7-1.7 3.4-3.4 5.2-1.7 1.7-3.4 3.4-6.9 5.2-3.4 1.7-5.2 1.7-8.6 1.7h-67V58.4zm51.5 46.4V92.8c-1.7-1.7-3.4-3.4-6.9-3.4h-3.4v125.4h8.6c1.7 0 1.7-1.7 1.7-1.7 0-1.7 1.7-3.4 1.7-6.9V104.9h-1.7zM1164.9 58.4h61.9v30.9h-22.3v37.8h22.3v31h-22.3v56.7h22.3v30.9h-61.9z"/></svg>